<svg className="logo-mega" xmlns="http://www.w3.org/2000/svg" xmlns:xlink="http://www.w3.org/1999/xlink" width="650" height="450" viewBox="0 0 650 350">
              <defs>
                <style>
                  .cls-1 {
                    clip-path: url(#clip-Cavli_Wireless);
                  }
            
                  .cls-2 {
                    fill: #0b3954;
                  }
                </style>
                <clipPath id="clip-Cavli_Wireless">
                  <rect width="650" height="350"></rect>
                </clipPath>
              </defs>
              <g id="Cavli_Wireless" className="cls-1">
                <g id="Group_30" data-name="Group 30" transform="translate(-301.215 -373.031)">
                  <g id="_Group_2" data-name=" Group 2" transform="translate(327.215 437.03)">
                    <g id="_Group_3" data-name=" Group 3" transform="translate(375.642 20.473)">
                      <path id="Path_442" data-name="Path 442" className="cls-2" d="M539.058,578.587a9.79,9.79,0,0,1-9.79,9.79H465.119V453.839a9.789,9.789,0,0,1,19.552,0V568.773h44.6A9.816,9.816,0,0,1,539.058,578.587Z" transform="translate(-465.119 -444.546)"></path>
                    </g>
                    <g id="_Group_4" data-name=" Group 4" transform="translate(238.494 20.067)">
                      <path id="Path_443" data-name="Path 443" className="cls-2" d="M533.621,458.323h0l-.125.354L485.353,580.759a15.623,15.623,0,0,1-2.138,3.271q-.4.5-.858.956l-.727.678-.6.479H480.9a13.279,13.279,0,0,1-7.853,2.517h-5.764l-7.02-17.618-44.847-113.2h0a9.766,9.766,0,1,1,18.245-6.971h0L474.683,554.41l40.843-103.183h0l.278-.705h0a9.765,9.765,0,0,1,18.825,3.574A9.451,9.451,0,0,1,533.621,458.323Z" transform="translate(-414.77 -444.397)"></path>
                    </g>
                    <g id="_Group_5" data-name=" Group 5" transform="translate(145.751 19.964)">
                      <path id="Path_444" data-name="Path 444" className="cls-2" d="M498.322,588.8H483.853a9.759,9.759,0,0,1-8.935-5.837l-.226-.58-8.507-21.492-7.7-19.6-26.5-66.84-10.569,26.626-15.78,40.213h31.709l7.752,19.6H397.758l-6.467,16.36-6.494-16.36L380.722,550.6l39.862-98.5h0a12.206,12.206,0,0,1,22.976.73Z" transform="translate(-380.722 -444.36)"></path>
                    </g>
                    <g id="_Group_6" data-name=" Group 6">
                      <path id="Path_445" data-name="Path 445" className="cls-2" d="M478.98,459.826h0a91.379,91.379,0,1,0-10.446,145.109l-9.06-22.9a67.319,67.319,0,1,1,3.574-104.087h0A12.065,12.065,0,0,0,479.181,460Z" transform="translate(-327.215 -437.031)"></path>
                    </g>
                  </g>
                  <g id="_Group_7" data-name=" Group 7" transform="translate(794.373 456.512)">
                    <path id="Path_446" data-name="Path 446" className="cls-2" d="M518.282,454.467V579.316a9.789,9.789,0,0,1-19.552,0V454.467h0a9.789,9.789,0,0,1,19.552-.992C518.3,453.805,518.3,454.137,518.282,454.467Z" transform="translate(-498.716 -444.182)"></path>
                  </g>
                  <g id="_Group_8" data-name=" Group 8" transform="translate(831.707 475.247)">
                    <g id="_Group_9" data-name=" Group 9" transform="translate(74.705 38.214)">
                      <path id="Path_447" data-name="Path 447" className="cls-2" d="M559.415,475.377v11a9.79,9.79,0,0,1-19.555.994c-.016-.332-.016-.662,0-.994v-11a9.79,9.79,0,1,1,19.555-.991C559.431,474.715,559.431,475.047,559.415,475.377Z" transform="translate(-539.847 -465.089)"></path>
                    </g>
                    <g id="_Group_10" data-name=" Group 10">
                      <path id="Path_448" data-name="Path 448" className="cls-2" d="M531.974,460.354v89.239a9.789,9.789,0,0,1-19.552,0V460.354h0a9.789,9.789,0,0,1,19.552,0Z" transform="translate(-512.422 -451.06)"></path>
                    </g>
                    <g id="_Group_11" data-name=" Group 11" transform="translate(37.384 18.586)">
                      <path id="Path_449" data-name="Path 449" className="cls-2" d="M545.712,468.171v49.777a9.789,9.789,0,0,1-19.552,0V468.171h0a9.789,9.789,0,1,1,19.552-.994A8.658,8.658,0,0,1,545.712,468.171Z" transform="translate(-526.147 -457.883)"></path>
                    </g>
                  </g>
                  <g id="_Group_12" data-name=" Group 12" transform="translate(475.416 619.925)">
                    <path id="_Compound_Path_" data-name=" Compound Path " className="cls-2" d="M409.42,506h2.517a1.382,1.382,0,0,1,1.433.981l9.035,23.783,9.362-24.84a1.559,1.559,0,0,1,1.662-1.207h4.857c1.13,0,1.585.678,1.207,1.735L425.9,541.384a1.81,1.81,0,0,1-1.811,1.207h-2.667a1.711,1.711,0,0,1-1.738-1.207l-8.959-23.859-9.161,23.859a1.711,1.711,0,0,1-1.735,1.207H397.19a1.711,1.711,0,0,1-1.738-1.207l-13.69-34.932c-.376-1.057,0-1.735,1.209-1.735H388a1.559,1.559,0,0,1,1.662,1.207l9.387,24.84,9.035-23.783A1.335,1.335,0,0,1,409.42,506Z" transform="translate(-381.622 -503.249)"></path>
                    <path id="_Compound_Path_2" data-name=" Compound Path 2" className="cls-2" d="M415.122,542.693h-4.252a1.559,1.559,0,0,1-1.662-1.452,1.325,1.325,0,0,1,0-.207V506.38a1.561,1.561,0,0,1,1.452-1.662,1.343,1.343,0,0,1,.21,0h4.252a1.507,1.507,0,0,1,1.661,1.34,1.585,1.585,0,0,1,0,.321v34.627a1.509,1.509,0,0,1-1.313,1.683A1.36,1.36,0,0,1,415.122,542.693Z" transform="translate(-334.073 -503.25)"></path>
                    <path id="_Compound_Path_3" data-name=" Compound Path 3" className="cls-2" d="M439.013,506.4v3.95a1.561,1.561,0,0,1-1.452,1.662,1.352,1.352,0,0,1-.21,0h-2.517a7.849,7.849,0,0,0-8.477,7.169c-.019.218-.027.438-.027.656v21.189a1.561,1.561,0,0,1-1.455,1.662,1.332,1.332,0,0,1-.207,0h-4.252a1.509,1.509,0,0,1-1.662-1.343,1.554,1.554,0,0,1,0-.319V506.4a1.507,1.507,0,0,1,1.34-1.662,1.581,1.581,0,0,1,.322,0h3.043a1.41,1.41,0,0,1,1.512,1.3,1.367,1.367,0,0,1,0,.21v1.585a12.736,12.736,0,0,1,8.959-3.119h3.5a1.507,1.507,0,0,1,1.594,1.419A1.457,1.457,0,0,1,439.013,506.4Z" transform="translate(-317.623 -503.269)"></path>
                    <path id="_Compound_Path_4" data-name=" Compound Path 4" className="cls-2" d="M467.923,526.05H438.982a12.229,12.229,0,0,0,12,9.512,16.821,16.821,0,0,0,10.068-3.825,1.459,1.459,0,0,1,2.062-.049,1.371,1.371,0,0,1,.226.275l2.517,2.871a1.432,1.432,0,0,1-.15,2.288,22.652,22.652,0,0,1-14.824,5.614,19.553,19.553,0,0,1-19.827-19.277l0-.253A18.6,18.6,0,0,1,449.744,504.7c.18,0,.36,0,.539.011,10.569,0,18.621,7.75,19.3,19.754a1.509,1.509,0,0,1-1.425,1.591A1.367,1.367,0,0,1,467.923,526.05Zm-6.619-5.889a11.4,11.4,0,0,0-22.323,0Z" transform="translate(-296.402 -503.267)"></path>
                    <path id="_Compound_Path_5" data-name=" Compound Path 5" className="cls-2" d="M466,537.627v4.331a1.56,1.56,0,0,1-1.452,1.659,1.353,1.353,0,0,1-.21,0h-.678c-7.826,0-12.23-3.724-12.23-12.909V505.844a1.507,1.507,0,0,1,1.34-1.662,1.585,1.585,0,0,1,.321,0h4.3a1.509,1.509,0,0,1,1.662,1.343,1.557,1.557,0,0,1,0,.319v24.864a4.58,4.58,0,0,0,3.876,5.189,4.45,4.45,0,0,0,.831.044h.981C465.551,535.941,466,536.622,466,537.627Z" transform="translate(-261.288 -504.174)"></path>
                    <path id="_Compound_Path_6" data-name=" Compound Path 6" className="cls-2" d="M498.561,526.059H469.72a12.229,12.229,0,0,0,12,9.488,16.851,16.851,0,0,0,10.068-3.825,1.459,1.459,0,0,1,2.062-.049,1.372,1.372,0,0,1,.226.275l2.517,2.871a1.432,1.432,0,0,1-.15,2.288,22.636,22.636,0,0,1-14.824,5.587A19.525,19.525,0,0,1,461.8,523.472c0-.1,0-.188,0-.281A18.6,18.6,0,0,1,480.5,504.709c.172,0,.343.005.515.011,10.572,0,18.623,7.725,19.3,19.729a1.479,1.479,0,0,1-1.762,1.61Zm-6.619-5.889a11.426,11.426,0,0,0-22.323,0Z" transform="translate(-243.412 -503.252)"></path>
                    <path id="_Compound_Path_7" data-name=" Compound Path 7" className="cls-2" d="M503.7,509.368l-1.534,2.642a1.464,1.464,0,0,1-2.215.5,12.8,12.8,0,0,0-5.813-1.61c-2.795,0-5.287,1.408-5.287,3.672s2.871,3.448,6.469,4.783c5.889,2.062,11.024,6.039,11.024,12.053s-5.211,11.25-12.734,11.25a23.978,23.978,0,0,1-10.9-2.944,1.535,1.535,0,0,1-.749-2.038,1.619,1.619,0,0,1,.1-.177l1.536-3.247a1.41,1.41,0,0,1,1.773-.91,1.523,1.523,0,0,1,.365.18,19.131,19.131,0,0,0,7.551,2.065c3.672,0,5.284-2.214,5.284-4.328s-2.291-3.9-7.349-5.889c-3.675-1.46-9.64-3.9-9.64-10.444,0-6.115,5.211-10.217,12.206-10.217a18.323,18.323,0,0,1,9.112,2.517,1.359,1.359,0,0,1,1.043,1.613A1.34,1.34,0,0,1,503.7,509.368Z" transform="translate(-209.297 -503.245)"></path>
                    <path id="_Compound_Path_8" data-name=" Compound Path 8" className="cls-2" d="M519.31,509.359,517.724,512a1.536,1.536,0,0,1-2.076.64,1.364,1.364,0,0,1-.215-.136,13.557,13.557,0,0,0-5.99-1.612c-2.893,0-5.461,1.411-5.461,3.674s2.969,3.448,6.7,4.783c6.091,2.062,11.4,6.039,11.4,12.078s-5.385,11.25-13.137,11.25a25.4,25.4,0,0,1-11.25-2.945,1.509,1.509,0,0,1-.8-1.978,1.643,1.643,0,0,1,.125-.237l1.585-3.247a1.484,1.484,0,0,1,1.9-.885,1.5,1.5,0,0,1,.311.155,20.269,20.269,0,0,0,7.9,2.065c3.8,0,5.462-2.214,5.462-4.353s-2.367-3.9-7.551-5.889c-3.8-1.46-10.065-3.9-10.065-10.444,0-6.115,5.385-10.217,12.582-10.217a19.353,19.353,0,0,1,9.411,2.514,1.359,1.359,0,0,1,.992,1.648A1.374,1.374,0,0,1,519.31,509.359Z" transform="translate(-183.478 -503.26)"></path>
                  </g>
                </g>
              </g>
            </svg>